<svg xmlns="http://www.w3.org/2000/svg" viewBox="0 0 20 20" fill="currentColor">
  <path d="M10.125 1.733c-.092-.047-.184-.092-.279-.136C9.172 1.34 8.441 1 7.514 1a6.96 6.96 0 00-4.664 1.83C.859 4.39.294 7.03.294 9.42c0 2.213.565 4.852 2.556 6.516.924.77 1.956 1.543 3.19 1.543.83 0 1.545-.308 2.221-.308.675 0 1.488.308 2.412.308 1.233 0 2.266-.773 3.19-1.543 1.99-1.664 2.556-4.303 2.556-6.516 0-2.39-.565-5.03-2.556-6.516a6.96 6.96 0 00-4.664-1.83c-.927 0-1.658.34-2.387.643zm.67 3.327c.077-.384.154-.77.23-.924.155-.307-.384-.538-.691-.462-.385.077-.692.385-.692.77 0 .384.23.615.692.615.308.077.538-.077.538-.46z"/>
</svg>